<svg id="Layer_1" enable-background="new 0 0 512 512" viewBox="0 0 512 512" xmlns="http://www.w3.org/2000/svg" xmlns:xlink="http://www.w3.org/1999/xlink"><linearGradient id="SVGID_1_" gradientUnits="userSpaceOnUse" x1="255.743" x2="255.743" y1="15.545" y2="497.544"><stop offset="0" stop-color="#a03a8d"/><stop offset="1" stop-color="#1f3c8d"/></linearGradient><path clip-rule="evenodd" d="m496.74 256.54c0-47.91-14.03-94.2-40.57-133.86-1.84-2.76-5.56-3.5-8.32-1.65-2.75 1.84-3.49 5.57-1.65 8.32 25.21 37.68 38.54 81.66 38.54 127.19 0 126.27-102.72 229-229 229-40.95 0-80.68-10.79-115.67-31.32l19.48-5.22c3.2-.86 5.1-4.15 4.24-7.35s-4.15-5.09-7.35-4.24l-32.78 8.78c-3.2.86-5.1 4.15-4.24 7.35l8.78 32.78c.72 2.68 3.14 4.44 5.79 4.44.51 0 1.04-.06 1.56-.2 3.2-.86 5.1-4.15 4.24-7.35l-4.85-18.09c36.61 21.25 78.07 32.42 120.8 32.42 64.37 0 124.9-25.07 170.41-70.59 45.52-45.51 70.59-106.03 70.59-170.41zm-258.36 179.27c-6.35 2.56-12.21 3.63-17.6 3.65h-.98c-19.71-.37-32.7-14.9-38.23-22.66-14-19.61-16.01-42.9-8.46-50.61 6.68-6.82 21.92-2.97 41.81 10.58 2.74 1.86 6.47 1.16 8.34-1.58 1.86-2.74 1.16-6.47-1.58-8.34-32.74-22.3-49.14-17.23-57.15-9.05-5.04 5.15-7.41 12.38-7.74 20.46-1.34.2-2.7.31-4.05.31-19.17 0-34.77-19.77-34.77-44.09 0-24.3 15.6-44.08 34.77-44.08 3.32 0 6-2.69 6-6 0-3.32-2.68-6-6-6-17.85 0-33.39 12.06-41.28 29.73-11.68-5.18-19.74-18.12-19.74-32.65 0-11.63 5.1-22.48 13.64-29.03 1.69-1.29 2.56-3.38 2.3-5.49s-1.61-3.92-3.57-4.77c-11.92-5.17-19.93-18.33-19.93-32.74 0-18.27 12.44-33.31 28.25-34.91 4.05 22.47 18.43 40.77 37.73 46.58.58.17 1.16.25 1.73.25 2.58 0 4.96-1.67 5.74-4.27.96-3.17-.85-6.52-4.02-7.47-17.86-5.38-30.33-25.13-30.33-48.03 0-27.24 17.78-49.4 39.63-49.4 5.33 0 10.5 1.3 15.38 3.88 2.93 1.55 6.56.43 8.11-2.5.47-.89.69-1.85.69-2.8v-.04c0-.01 0-.02 0-.03v-.04c0-17.12 13.93-31.05 31.05-31.05 7.51 0 14.61 2.65 20.24 7.51v354.68zm-42.46-201.45c10.71 16.89 14.73 32.65 12.27 48.19-2.11 13.29-9.03 26.17-21.15 39.35-1.18 1.29-2.8 1.94-4.42 1.94-1.45 0-2.91-.52-4.06-1.58-2.44-2.24-2.6-6.04-.36-8.48 22.05-23.98 24.38-46.5 7.58-72.99-1.78-2.8-.95-6.51 1.85-8.28 2.81-1.78 6.51-.95 8.29 1.85zm8.2-40.32c-12.03-3.27-21.05-13.94-22.98-27.19-1.24-8.49.61-16.94 5.19-23.78 4.71-7.04 11.73-11.56 19.76-12.73.65-.09 1.31-.17 1.97-.22 3.3-.25 6.18 2.23 6.43 5.54.24 3.31-2.23 6.18-5.54 6.43-.37.03-.75.07-1.12.12-4.63.67-8.72 3.35-11.52 7.53-2.93 4.37-4.1 9.84-3.29 15.38 1.22 8.39 6.95 15.36 14.25 17.34 3.2.87 5.08 4.17 4.22 7.36-.73 2.67-3.14 4.43-5.79 4.43-.53 0-1.05-.07-1.58-.21zm188-48.45c1.25 1.25 1.45 3.09.49 4.58l-18.98 29.37c-3.03 4.69-3.38 10.27-.96 15.31 2.3 4.75 4.34 9.68 6.07 14.63 1.85 5.26 6.04 8.96 11.49 10.13l34.17 7.34c1.73.37 2.89 1.81 2.89 3.58v52.03c0 1.77-1.16 3.21-2.89 3.58l-34.17 7.34c-5.46 1.17-9.64 4.86-11.49 10.13-1.74 4.95-3.78 9.87-6.07 14.63-2.43 5.04-2.08 10.61.95 15.31l18.98 29.36c.96 1.49.77 3.33-.49 4.58l-36.79 36.79c-1.25 1.26-3.1 1.45-4.58.49l-29.37-18.98c-4.69-3.03-10.27-3.38-15.31-.95-4.75 2.29-9.67 4.33-14.63 6.07-5.26 1.85-8.96 6.03-10.13 11.49l-7.34 34.17c-.37 1.73-1.81 2.89-3.58 2.89h-20.01v-78.52c54.88-3.12 98.57-48.75 98.57-104.4s-43.69-101.27-98.57-104.39v-73.64c0-1.65-.67-3.15-1.75-4.24-.01 0-.01-.01-.02-.01-.22-.22-.45-.42-.67-.64h22.45c1.77 0 3.21 1.16 3.58 2.9l7.34 34.17c1.17 5.46 4.86 9.64 10.13 11.49 4.95 1.74 9.87 3.78 14.63 6.07 5.04 2.43 10.61 2.08 15.31-.96l29.37-18.98c1.49-.96 3.33-.77 4.58.49zm-4.3-78.69-32.78 8.78c-.52.14-1.04.2-1.56.2-2.65 0-5.07-1.76-5.79-4.45-.86-3.2 1.04-6.49 4.24-7.35l19.48-5.22c-34.99-20.53-74.72-31.32-115.67-31.32-126.27 0-229 102.73-229 229 0 45.53 13.33 89.51 38.54 127.19 1.85 2.76 1.11 6.48-1.65 8.33-1.03.69-2.18 1.01-3.33 1.01-1.94 0-3.83-.94-4.99-2.66-26.54-39.66-40.57-85.95-40.57-133.86 0-64.37 25.07-124.89 70.59-170.41s106.04-70.59 170.41-70.59c42.73 0 84.19 11.17 120.8 32.43l-4.85-18.1c-.86-3.2 1.04-6.49 4.24-7.35s6.49 1.04 7.35 4.24l8.78 32.77c.86 3.21-1.04 6.5-4.24 7.36z" fill="url(#SVGID_1_)" fill-rule="evenodd"/></svg>